<svg width="22" height="18" viewBox="0 0 22 18" fill="none" xmlns="http://www.w3.org/2000/svg">
<path fill-rule="evenodd" clip-rule="evenodd" d="M3 2C2.45228 2 2 2.45228 2 3V15C2 15.5477 2.45228 16 3 16H19C19.5477 16 20 15.5477 20 15V3C20 2.45228 19.5477 2 19 2H3ZM0 3C0 1.34772 1.34772 0 3 0H19C20.6523 0 22 1.34772 22 3V15C22 16.6523 20.6523 18 19 18H3C1.34772 18 0 16.6523 0 15V3Z" fill="white"/>
<path fill-rule="evenodd" clip-rule="evenodd" d="M0.180732 2.42662C0.497446 1.97417 1.12098 1.86414 1.57343 2.18085L11 8.77943L20.4265 2.18085C20.879 1.86414 21.5025 1.97417 21.8192 2.42662C22.1359 2.87907 22.0259 3.5026 21.5734 3.81932L11.5734 10.8193C11.2291 11.0603 10.7708 11.0603 10.4265 10.8193L0.426501 3.81932C-0.0259479 3.5026 -0.135983 2.87907 0.180732 2.42662Z" fill="white"/>
</svg>
