<svg width="20" height="20" viewBox="0 0 20 20" fill="none" xmlns="http://www.w3.org/2000/svg">
<path fill-rule="evenodd" clip-rule="evenodd" d="M4.66984 2.24181C4.48585 2.08359 4.25061 1.99766 4.00796 2.00005L3.99812 2.00015V2.0001H0.998734C0.860015 2.00027 0.722848 2.02931 0.595954 2.08536C0.468961 2.14145 0.355039 2.22337 0.261441 2.32591C0.167844 2.42844 0.0966214 2.54934 0.0523087 2.68091C0.00869701 2.81039 -0.00790926 2.94742 0.00348685 3.08353C0.316232 6.01509 1.31442 8.83197 2.9174 11.3064L2.92216 11.3138L2.92213 11.3138C4.37873 13.606 6.32217 15.5495 8.61444 17.0061L8.62224 17.011L8.62222 17.0111C11.0851 18.6082 13.8878 19.6061 16.8057 19.9248C16.9419 19.9361 17.079 19.9193 17.2085 19.8755C17.3404 19.8309 17.4616 19.7592 17.5642 19.6651C17.6668 19.5709 17.7486 19.4564 17.8044 19.3288C17.8602 19.2012 17.8887 19.0634 17.8881 18.9242L17.8881 18.9201V15.9201C17.8881 15.9118 17.8882 15.9036 17.8884 15.8953C17.8945 15.6501 17.8103 15.4112 17.6517 15.224C17.4939 15.0378 17.2735 14.9158 17.032 14.8808C15.999 14.7442 14.9848 14.4913 14.0085 14.127L14.0063 14.1261C13.8273 14.0589 13.6328 14.0443 13.4458 14.0842C13.2596 14.1239 13.0886 14.216 12.9529 14.3495L11.6852 15.6172C11.3669 15.9355 10.8751 16.0019 10.4838 15.7794C7.8238 14.2669 5.62135 12.0644 4.10882 9.40439C3.88631 9.01307 3.9527 8.5213 4.27101 8.20299L5.53865 6.93535C5.67222 6.79966 5.7643 6.62864 5.80402 6.4424C5.8439 6.25541 5.82934 6.06092 5.76206 5.88196L5.76122 5.8797C5.39695 4.90349 5.14408 3.88928 5.00743 2.85633C4.97275 2.61751 4.85287 2.39923 4.66984 2.24181ZM3.99369 9.70305e-05C4.71973 -0.00573987 5.42333 0.25194 5.97392 0.725444C6.52587 1.20013 6.88639 1.85932 6.98828 2.58015L6.98957 2.58933L6.98953 2.58934C7.10624 3.47427 7.32265 4.34316 7.63463 5.17945C7.83605 5.716 7.87957 6.29903 7.76003 6.85956C7.6404 7.42051 7.36246 7.9354 6.95917 8.34324L6.95523 8.34722L6.95522 8.3472L6.23813 9.0643C7.41399 10.9089 8.97927 12.4742 10.8239 13.6501L11.541 12.933L11.545 12.929C11.9528 12.5258 12.4677 12.2478 13.0287 12.1282C13.5892 12.0086 14.1722 12.0522 14.7088 12.2536C15.5451 12.5656 16.4139 12.782 17.2989 12.8987L17.3078 12.8999L17.3078 12.8999C18.0365 13.0027 18.7019 13.3697 19.1776 13.9311C19.6504 14.4891 19.9029 15.2004 19.8881 15.9313V18.9181" fill="white"/>
</svg>
