<svg width="36" height="26" viewBox="0 0 36 26" fill="none" xmlns="http://www.w3.org/2000/svg">
<path fill-rule="evenodd" clip-rule="evenodd" d="M16.7665 0.43208C17.113 0.5986 17.3333 0.948978 17.3333 1.33338V24.6667C17.3333 25.0511 17.113 25.4015 16.7665 25.568C16.42 25.7345 16.0088 25.6877 15.7086 25.4476L7.6492 19.0001H1.33331C0.781028 19.0001 0.333313 18.5523 0.333313 18.0001V8.00005C0.333313 7.44777 0.781028 7.00005 1.33331 7.00005H7.6492L15.7086 0.552515C16.0088 0.312379 16.42 0.26556 16.7665 0.43208ZM15.3333 3.41401L8.62467 8.78092C8.44736 8.92277 8.22705 9.00005 7.99998 9.00005H2.33331V17.0001H7.99998C8.22705 17.0001 8.44736 17.0773 8.62467 17.2192L15.3333 22.5861V3.41401Z" fill="#100C46"/>
<path fill-rule="evenodd" clip-rule="evenodd" d="M29.0763 0.509461C29.4669 0.118996 30.1 0.119092 30.4905 0.509675C33.8025 3.82266 35.6631 8.31544 35.6631 13C35.6631 17.6846 33.8025 22.1774 30.4905 25.4903C30.1 25.8809 29.4669 25.881 29.0763 25.4906C28.6857 25.1001 28.6856 24.4669 29.0761 24.0763C32.0131 21.1384 33.6631 17.1542 33.6631 13C33.6631 8.84577 32.0131 4.86161 29.0761 1.92367C28.6856 1.53309 28.6857 0.899927 29.0763 0.509461ZM23.193 6.3928C23.5835 6.00233 24.2167 6.00243 24.6072 6.39301C26.3569 8.14327 27.3399 10.5168 27.3399 12.9917C27.3399 15.4665 26.3569 17.8401 24.6072 19.5903C24.2167 19.9809 23.5835 19.981 23.193 19.5906C22.8024 19.2001 22.8023 18.5669 23.1927 18.1763C24.5675 16.8011 25.3399 14.9362 25.3399 12.9917C25.3399 11.0471 24.5675 9.18221 23.1927 7.80701C22.8023 7.41643 22.8024 6.78326 23.193 6.3928Z" fill="#100C46"/>
</svg>
