<?xml version="1.0" encoding="UTF-8" standalone="no"?>
<svg
   width="38"
   height="34"
   viewBox="0 0 38 34"
   fill="none"
   version="1.1"
   id="svg3974"
   sodipodi:docname="services-icon-03.svg"
   inkscape:version="1.2.2 (732a01da63, 2022-12-09)"
   xmlns:inkscape="http://www.inkscape.org/namespaces/inkscape"
   xmlns:sodipodi="http://sodipodi.sourceforge.net/DTD/sodipodi-0.dtd"
   xmlns="http://www.w3.org/2000/svg"
   xmlns:svg="http://www.w3.org/2000/svg">
  <defs
     id="defs3978" />
  <sodipodi:namedview
     id="namedview3976"
     pagecolor="#ffffff"
     bordercolor="#000000"
     borderopacity="0.25"
     inkscape:showpageshadow="2"
     inkscape:pageopacity="0.0"
     inkscape:pagecheckerboard="0"
     inkscape:deskcolor="#d1d1d1"
     showgrid="false"
     inkscape:zoom="14.764706"
     inkscape:cx="6.2649402"
     inkscape:cy="17"
     inkscape:window-width="1366"
     inkscape:window-height="705"
     inkscape:window-x="-8"
     inkscape:window-y="-8"
     inkscape:window-maximized="1"
     inkscape:current-layer="svg3974" />
  <path
     style="color:#000000;display:inline;stroke-linecap:round;stroke-linejoin:round;-inkscape-stroke:none;fill-rule:evenodd;fill:#000000;fill-opacity:1"
     d="m 27.25,0.99609375 c -1.33545,0 -2.658812,0.26416065 -3.892578,0.77539065 -1.23385,0.5112188 -2.354759,1.260499 -3.298828,2.2050781 L 19,5.0351562 17.939453,3.9765625 C 16.032696,2.0698275 13.446533,0.99804688 10.75,0.99804688 c -2.6965593,0 -5.284655,1.07177542 -7.1914062,2.97851562 -1.9067543,1.9067543 -2.97656255,4.4928698 -2.97656255,7.1894535 0,2.696529 1.06981475,5.284647 2.97656255,7.191406 l 1.7675781,1.765625 12.9667971,12.966797 a 1.0001,1.0001 0 0 0 1.414062,0 l 12.966797,-12.966797 1.765625,-1.765625 c 0.944589,-0.944145 1.693893,-2.065063 2.205078,-3.298828 0.511314,-1.233809 0.775391,-2.557151 0.775391,-3.892578 0,-1.3355083 -0.264085,-2.6568048 -0.775391,-3.8906254 C 36.133348,6.0415959 35.384063,4.9206843 34.439453,3.9765625 33.495626,3.0325297 32.375924,2.282494 31.142578,1.7714844 29.908812,1.2602544 28.58545,0.99609375 27.25,0.99609375 Z m 0,2.00000005 c 1.072748,0 2.135922,0.2123977 3.126953,0.6230468 0.991148,0.4106603 1.890108,1.0127452 2.648438,1.7714844 a 1.0001,1.0001 0 0 0 0.002,0 c 0.758788,0.7583965 1.358916,1.6593276 1.769531,2.6503906 0.410694,0.9910372 0.623047,2.0521304 0.623047,3.1250004 0,1.072769 -0.212362,2.135964 -0.623047,3.126953 -0.410614,0.991032 -1.012675,1.891937 -1.771484,2.65039 L 31.259766,18.708984 19,30.96875 6.7402344,18.708984 4.9746094,16.943359 C 3.4423805,15.411122 2.5820313,13.332881 2.5820313,11.166016 c 0,-2.1669322 0.8603558,-4.2431687 2.3925781,-5.775391 C 6.5068347,3.8584086 8.5831042,2.9980469 10.75,2.9980469 c 2.166863,0 4.243151,0.8603566 5.775391,2.3925781 l 1.767578,1.765625 a 1.0001,1.0001 0 0 0 1.414062,0 L 21.474609,5.390625 C 22.232939,4.6318858 23.131899,4.0298009 24.123047,3.6191406 25.114078,3.2084915 26.177252,2.9960938 27.25,2.9960938 Z"
     id="path5201"
     inkscape:label="path3972" />
</svg>
