<svg width="32" height="32" viewBox="0 0 32 32" fill="none" xmlns="http://www.w3.org/2000/svg">
<path fill-rule="evenodd" clip-rule="evenodd" d="M4.33333 2C3.04467 2 2 3.04467 2 4.33333V27.6667C2 28.9553 3.04467 30 4.33333 30H27.6667C28.9553 30 30 28.9553 30 27.6667V4.33333C30 3.04467 28.9553 2 27.6667 2H4.33333ZM0 4.33333C0 1.9401 1.9401 0 4.33333 0H27.6667C30.0599 0 32 1.9401 32 4.33333V27.6667C32 30.0599 30.0599 32 27.6667 32H4.33333C1.9401 32 0 30.0599 0 27.6667V4.33333Z" fill="#100C46"/>
<path fill-rule="evenodd" clip-rule="evenodd" d="M0 11C0 10.4477 0.447715 10 1 10H31C31.5523 10 32 10.4477 32 11C32 11.5523 31.5523 12 31 12H1C0.447715 12 0 11.5523 0 11Z" fill="#100C46"/>
<path fill-rule="evenodd" clip-rule="evenodd" d="M11 10C11.5523 10 12 10.4477 12 11V31C12 31.5523 11.5523 32 11 32C10.4477 32 10 31.5523 10 31V11C10 10.4477 10.4477 10 11 10Z" fill="#100C46"/>
</svg>
